<svg width="60" height="60" viewBox="0 0 60 60" fill="none" xmlns="http://www.w3.org/2000/svg">
<path d="M54.1875 15.375L31.875 4.125C30.75 3.5625 29.4375 3.5625 28.3125 4.125L5.8125 15.375C4.5 15.9375 3.75 17.25 3.75 18.5625C3.75 19.875 4.5 21.1875 5.8125 21.9375L28.125 33C28.6875 33.1875 29.25 33.375 30 33.375C30.75 33.375 31.3125 33.1875 31.875 33L54.1875 21.9375C55.5 21.375 56.25 20.0625 56.25 18.5625C56.25 17.0625 55.5 15.9375 54.1875 15.375Z" fill="url(#paint0_linear_1_92)"/>
<path d="M56.25 30C56.25 28.5 55.5 27.375 54.1875 26.625L49.5 24.375L54.1875 22.125C55.5 21.5625 56.25 20.25 56.25 18.75C56.25 17.25 55.5 16.125 54.1875 15.375L31.875 4.125C30.75 3.5625 29.4375 3.5625 28.3125 4.125L5.8125 15.375C4.5 15.9375 3.75 17.25 3.75 18.5625C3.75 19.875 4.5 21.1875 5.8125 21.9375L10.5 24.375L5.8125 26.625C4.5 27.375 3.75 28.5 3.75 30C3.75 31.5 4.5 32.625 5.8125 33.375L10.5 35.625L5.8125 37.875C4.5 38.4375 3.75 39.75 3.75 41.25C3.75 42.75 4.5 43.875 5.8125 44.625L28.125 55.875C28.6875 56.0625 29.25 56.25 30 56.25C30.5625 56.25 31.3125 56.0625 31.875 55.875L54.1875 44.8125C55.5 44.25 56.25 42.9375 56.25 41.4375C56.25 39.9375 55.5 38.8125 54.1875 38.0625L49.5 35.625L54.1875 33.375C55.5 32.625 56.25 31.5 56.25 30ZM7.5 18.5625L29.8125 7.5C29.8125 7.5 29.8125 7.5 30 7.5H30.1875L52.5 18.5625L30.1875 29.625H30L7.5 18.5625C7.5 18.75 7.5 18.75 7.5 18.5625ZM52.5 41.4375L30.1875 52.5H30L7.5 41.4375L14.8125 37.875L28.3125 44.625C28.875 44.8125 29.4375 45 30.1875 45C30.9375 45 31.5 44.8125 32.0625 44.625L45.5625 37.875L52.5 41.4375ZM30.1875 41.0625H30L7.5 30L14.8125 26.4375L28.3125 33.1875C28.875 33.375 29.4375 33.5625 30.1875 33.5625C30.9375 33.5625 31.5 33.375 32.0625 33.1875L45.5625 26.4375L52.5 30L30.1875 41.0625Z" fill="url(#paint1_linear_1_92)"/>
<defs>
<linearGradient id="paint0_linear_1_92" x1="30" y1="3.70312" x2="30" y2="33.375" gradientUnits="userSpaceOnUse">
<stop stop-color="#FFDC72"/>
<stop offset="1" stop-color="#FFC107"/>
</linearGradient>
<linearGradient id="paint1_linear_1_92" x1="3.75" y1="29.9998" x2="56.25" y2="29.9998" gradientUnits="userSpaceOnUse">
<stop stop-color="#FFDC72"/>
<stop offset="1" stop-color="#FFC107"/>
</linearGradient>
</defs>
</svg>
