<svg width="60" height="60" viewBox="0 0 60 60" fill="none" xmlns="http://www.w3.org/2000/svg">
<g clip-path="url(#clip0_1_105)">
<path d="M52.5 30C52.4994 28.6207 52.3738 27.2442 52.125 25.8875L59.7325 21.5L52.2325 8.5L44.6225 12.8975C42.5214 11.0998 40.1069 9.70484 37.5 8.7825V0H22.5V8.7825C19.8932 9.70484 17.4786 11.0998 15.3775 12.8975L7.76752 8.5L0.267517 21.5L7.87502 25.8875C7.37529 28.6064 7.37529 31.3936 7.87502 34.1125L0.267517 38.5L7.76752 51.5L15.3775 47.105C17.4788 48.9018 19.8933 50.2959 22.5 51.2175V60H37.5V51.2175C40.1069 50.2952 42.5214 48.9002 44.6225 47.1025L52.2325 51.5L59.7325 38.5L52.125 34.1125C52.3738 32.7558 52.4994 31.3793 52.5 30ZM37.5 30C37.5 31.4834 37.0602 32.9334 36.236 34.1668C35.4119 35.4001 34.2406 36.3614 32.8701 36.9291C31.4997 37.4968 29.9917 37.6453 28.5368 37.3559C27.082 37.0665 25.7456 36.3522 24.6967 35.3033C23.6478 34.2544 22.9335 32.918 22.6441 31.4632C22.3547 30.0083 22.5033 28.5003 23.0709 27.1299C23.6386 25.7594 24.5999 24.5881 25.8332 23.764C27.0666 22.9399 28.5167 22.5 30 22.5C31.9891 22.5 33.8968 23.2902 35.3033 24.6967C36.7098 26.1032 37.5 28.0109 37.5 30Z" fill="url(#paint0_linear_1_105)"/>
</g>
<defs>
<linearGradient id="paint0_linear_1_105" x1="0.234443" y1="30" x2="59.7657" y2="30" gradientUnits="userSpaceOnUse">
<stop stop-color="#FFDC72"/>
<stop offset="1" stop-color="#FFC107"/>
</linearGradient>
<clipPath id="clip0_1_105">
<rect width="60" height="60" fill="white"/>
</clipPath>
</defs>
</svg>
