<svg width="60" height="60" viewBox="0 0 60 60" fill="none" xmlns="http://www.w3.org/2000/svg">
<g clip-path="url(#clip0_1_74)">
<path d="M6.8775 37.5H-1.82539e-06V35C-0.0378476 31.4947 0.890483 28.0467 2.68315 25.0342C4.47582 22.0217 7.06356 19.5612 10.1625 17.9225C13.2153 16.4173 16.5216 15.4932 19.9125 15.1975C18.4308 17.0308 16.945 18.9792 15.455 21.0425C12.099 26.2548 9.22786 31.7636 6.8775 37.5ZM38.9575 44.5325C33.7457 47.8928 28.2368 50.7681 22.5 53.1225V60H25C28.5053 60.0378 31.9533 59.1095 34.9658 57.3168C37.9783 55.5242 40.4388 52.9364 42.0775 49.8375C43.5827 46.7847 44.5068 43.4784 44.8025 40.0875C42.9775 41.5625 41.0292 43.0442 38.9575 44.5325ZM60 7.4775C59.6675 18.36 51.8325 29.1525 36.045 40.4775C31.7488 43.2626 27.2164 45.6651 22.5 47.6575V46.25C22.4888 43.9328 21.5634 41.7137 19.9248 40.0752C18.2863 38.4366 16.0672 37.5112 13.75 37.5H12.3425C14.3372 32.7836 16.7432 28.252 19.5325 23.9575C30.83 8.195 41.605 0.36 52.47 0C57.885 0 60 2.2125 60 7.4775ZM45 21.25C45 19.5924 44.3415 18.0027 43.1694 16.8306C41.9973 15.6585 40.4076 15 38.75 15C37.0924 15 35.5027 15.6585 34.3306 16.8306C33.1585 18.0027 32.5 19.5924 32.5 21.25C32.5 22.9076 33.1585 24.4973 34.3306 25.6694C35.5027 26.8415 37.0924 27.5 38.75 27.5C40.4076 27.5 41.9973 26.8415 43.1694 25.6694C44.3415 24.4973 45 22.9076 45 21.25ZM3.435 59.4625C6.25 58.9625 13.0375 57.5675 15.305 55.3025C16.0015 54.606 16.554 53.7791 16.9309 52.8691C17.3079 51.9591 17.5019 50.9837 17.5019 49.9987C17.5019 49.0138 17.3079 48.0384 16.9309 47.1284C16.554 46.2184 16.0015 45.3915 15.305 44.695C14.6085 43.9985 13.7816 43.446 12.8716 43.0691C11.9616 42.6921 10.9862 42.4981 10.0012 42.4981C8.01196 42.4981 6.10414 43.2884 4.6975 44.695C2.4325 46.9625 1.035 53.75 0.537498 56.565L-0.0800018 60.08L3.435 59.4625Z" fill="url(#paint0_linear_1_74)"/>
</g>
<defs>
<linearGradient id="paint0_linear_1_74" x1="-0.117195" y1="30" x2="60" y2="30" gradientUnits="userSpaceOnUse">
<stop stop-color="#FFDC72"/>
<stop offset="1" stop-color="#FFC107"/>
</linearGradient>
<clipPath id="clip0_1_74">
<rect width="60" height="60" fill="white"/>
</clipPath>
</defs>
</svg>
