<svg width="60" height="60" viewBox="0 0 60 60" fill="none" xmlns="http://www.w3.org/2000/svg">
<g clip-path="url(#clip0_1_80)">
<path d="M30 0C13.4575 0 0 13.4575 0 30C0 46.5425 13.4575 60 30 60C46.5425 60 60 46.5425 60 30C60 13.4575 46.5425 0 30 0ZM38.835 33.7775L33.2325 45.9175C32.7875 46.8825 31.8225 47.5 30.76 47.5H30.2275C28.7225 47.5 27.5025 46.28 27.5025 44.775V38.8625C27.5025 37.99 27.155 37.1525 26.5375 36.535L23.5625 33.56C22.8825 32.88 22.5 31.9575 22.5 30.9975V28.59C22.5 27.8925 22.2225 27.2225 21.7275 26.7275L20.795 25.795C20.285 25.285 19.595 25 18.875 25H14.0025C13.0425 25 12.125 24.6075 11.4625 23.91L7.3175 19.5525C11.285 10.9775 19.9475 5 30 5C30.515 5 31.0175 5.0475 31.5225 5.0775C30.19 7.0975 28.9825 8.955 28.25 10.09C27.7875 10.8025 27.7775 11.71 28.215 12.44L30.3075 15.93C30.8625 16.8525 30.715 18.035 29.955 18.7975L29.9475 18.805C29.2325 19.52 28.1425 19.6975 27.2375 19.245L25.0375 18.145C24.27 17.76 23.3425 17.9125 22.735 18.5175L21.4125 19.84C20.6325 20.62 20.6325 21.8825 21.4125 22.66L22.8925 24.14C23.4425 24.69 24.19 25 24.9675 25H28.545C29.4975 25 30.43 25.2675 31.2375 25.7725L37.6425 29.775C38.99 30.6175 39.5025 32.3325 38.835 33.7775ZM48.81 30.65C47.98 30.2375 47.3725 29.4825 47.1475 28.5825L45.58 22.315C45.2375 20.945 45.845 19.5125 47.0675 18.8075L51.025 16.525C53.53 20.4175 55 25.0375 55 30C55 31.22 54.8825 32.4075 54.7125 33.58L48.81 30.65Z" fill="url(#paint0_linear_1_80)"/>
</g>
<defs>
<linearGradient id="paint0_linear_1_80" x1="7.35599e-08" y1="30" x2="55.0781" y2="49.7461" gradientUnits="userSpaceOnUse">
<stop stop-color="#FFDC72"/>
<stop offset="1" stop-color="#FFC107"/>
</linearGradient>
<clipPath id="clip0_1_80">
<rect width="60" height="60" fill="white"/>
</clipPath>
</defs>
</svg>
