<svg width="318" height="318" viewBox="0 0 318 318" fill="none" xmlns="http://www.w3.org/2000/svg">
<g opacity="0.21" clip-path="url(#clip0_39_169)">
<path d="M144.646 229.303L116.926 217.361L120.054 210.098C129.492 188.189 150.562 174.578 179.389 171.769C201.172 169.65 218.566 154.346 223.684 132.778C228.404 112.869 219.752 91.1207 202.645 79.8949C189.72 71.4235 174.637 69.1547 160.147 73.495C145.853 77.7882 134.276 88.1054 128.381 101.79L100.66 89.8483C110.094 67.9489 128.616 51.4541 151.466 44.5916C174.294 37.7304 199.004 41.4296 219.195 54.652C246.732 72.7155 260.654 107.711 253.051 139.755C245.037 173.539 216.6 198.48 182.308 201.817C164.425 203.556 152.811 210.351 147.775 222.04L144.646 229.303ZM136.685 247.783L108.964 235.841L97.0225 263.562L124.743 275.504L136.685 247.783Z" fill="black"/>
</g>
<defs>
<clipPath id="clip0_39_169">
<rect width="241.468" height="241.468" fill="white" transform="translate(95.5352) rotate(23.3061)"/>
</clipPath>
</defs>
</svg>
